<svg xmlns="http://www.w3.org/2000/svg" viewBox="0 0 70 24.65" role="img" aria-label="beta→alpha academy">
  <!-- main mark: terracotta -->
  <g fill="#C1654B">
    <path d="M14.29,6.03c-.58,0-.92.37-.99,1.41h1.93v-.08c-.01-.79-.25-1.33-.94-1.33"/>
    <path d="M49.51,6.15c-.4,0-.75.25-1,.68v2.44c.24.35.52.51.88.51.64,0,1.04-.51,1.04-1.81,0-1.44-.35-1.82-.92-1.82"/>
    <path d="M38.66,9.09c0,.46.25.73.68.73s.71-.21.92-.56v-1.03h-.43c-.79,0-1.17.27-1.17.85"/>
    <path d="M64.43,11.02c-.69-.05-1.13-.26-1.4-.84-.41.64-1.06.87-1.74.87-1.16,0-1.89-.75-1.89-1.81,0-1.27.96-1.95,2.72-1.95h.59v-.25c0-.69-.27-.89-.98-.89-.37,0-.94.11-1.52.31l-.39-1.13c.73-.27,1.53-.42,2.18-.42,1.68,0,2.4.71,2.4,2.05v2.25c0,.45.12.61.39.71l-.36,1.12ZM49.92,11.05c-.57,0-1.05-.2-1.41-.6v2.65l-1.72.18V5.07h1.52l.09.64c.48-.6,1.1-.83,1.67-.83,1.49,0,2.16,1.19,2.16,3.06s-.87,3.1-2.3,3.1M41.98,11.02c-.69-.05-1.13-.26-1.4-.84-.41.64-1.06.87-1.74.87-1.16,0-1.89-.75-1.89-1.81,0-1.27.96-1.95,2.72-1.95h.59v-.25c0-.69-.27-.89-.98-.89-.37,0-.94.11-1.52.31l-.39-1.13c.73-.27,1.53-.42,2.18-.42,1.68,0,2.4.71,2.4,2.05v2.25c0,.45.12.61.39.71l-.36,1.12ZM33.09,10.93l-1.13-.97,1.01-1.1c.37-.4.66-.65,1.07-.88h-5.59v-1.4h5.58c-.4-.24-.65-.45-1.06-.88l-1.01-1.1,1.13-.97,3.28,3.65-3.28,3.65ZM27.15,11.02c-.69-.05-1.13-.26-1.4-.84-.41.64-1.06.87-1.74.87-1.16,0-1.89-.75-1.89-1.81,0-1.27.96-1.95,2.72-1.95h.59v-.25c0-.69-.27-.89-.98-.89-.37,0-.94.11-1.52.31l-.39-1.13c.73-.27,1.53-.42,2.18-.42,1.68,0,2.4.71,2.4,2.05v2.25c0,.45.12.61.39.71l-.36,1.12ZM20.15,11.05c-1.28-.01-1.9-.73-1.9-2.09v-2.68h-.82v-1.2h.82v-1.25l1.72-.2v1.45h1.33l-.19,1.2h-1.14v2.66c0,.56.19.75.55.75.2,0,.39-.05.62-.18l.58,1.09c-.44.31-1.05.46-1.57.46M16.89,8.48h-3.59c.12,1.04.61,1.32,1.32,1.32.47,0,.88-.16,1.38-.51l.71.96c-.58.46-1.32.81-2.26.81-1.93,0-2.91-1.24-2.91-3.05s.95-3.11,2.7-3.11c1.66,0,2.67,1.09,2.67,2.97,0,.18-.01.45-.03.62M55.13,0v5.7c.47-.53.99-.81,1.67-.81,1,0,1.6.64,1.6,1.74v4.23h-1.72v-3.94c0-.61-.22-.77-.55-.77-.38,0-.7.27-1,.74v3.97h-1.72V0h-8.34v9.33c0,.24.09.36.29.36.12,0,.21-.02.28-.05l.34,1.22c-.26.11-.63.2-1.05.2-1,0-1.59-.6-1.59-1.66V0H6.93v5.66c.35-.48.92-.77,1.56-.77,1.38,0,2.15,1.14,2.15,3.09,0,1.79-.86,3.08-2.3,3.08-.64,0-1.17-.28-1.52-.74l-.09.56h-1.53V0H0v15.07h70V0h-14.87Z"/>
    <path d="M7.84,9.8c.6,0,1.01-.47,1.01-1.82,0-1.47-.39-1.82-.94-1.82-.39,0-.73.25-.98.68v2.41c.22.35.54.56.91.56"/>
    <path d="M61.12,9.09c0,.46.25.73.68.73s.71-.21.92-.56v-1.03h-.43c-.79,0-1.17.27-1.17.85"/>
    <path d="M23.84,9.09c0,.46.25.73.68.73s.71-.21.92-.56v-1.03h-.43c-.79,0-1.17.27-1.17.85"/>
  </g>
  <!-- "ACADEMY" text: ink-soft, lighter weight -->
  <g fill="#8B7B6E" opacity="0.9">
    <path d="M2.87,23.58l-.23-.97h-1.31l-.23.97H0l1.35-4.49h1.29l1.35,4.49h-1.13ZM1.51,21.84h.95l-.47-1.98-.47,1.98Z"/>
    <path d="M13.23,19.08l-1.11,2.04,1.23,2.46h-1.16l-.97-1.95h-.47v1.95h-1.06v-4.49h1.06v1.76h.49l.93-1.76h1.04Z"/>
    <path d="M21.68,23.58l-.23-.97h-1.31l-.23.97h-1.1l1.35-4.49h1.29l1.35,4.49h-1.13ZM20.32,21.84h.95l-.47-1.98-.47,1.98Z"/>
    <path d="M32.31,22.77v1.89h-.74l-.12-1.08h-2.37l-.12,1.08h-.74v-1.89h.33c.09-.1.17-.24.22-.4.06-.16.11-.38.16-.66.05-.28.11-.68.18-1.21l.18-1.41h2.62v3.68h.4ZM30.89,19.87h-.69l-.05.54c-.05.5-.11.9-.17,1.2s-.14.54-.23.72c-.09.18-.2.33-.35.44h1.49v-2.9Z"/>
    <path d="M40.9,19.08l-.11.76h-1.58v1.08h1.38v.75h-1.38v1.15h1.69v.77h-2.75v-4.49h2.75Z"/>
    <path d="M51.33,23.58h-1.04l-.08-1.76c-.02-.42-.03-.79-.03-1.12,0-.25,0-.49.02-.71l-.69,3.12h-1l-.74-3.12c.03.38.04.73.04,1.06,0,.25,0,.51-.02.78l-.08,1.74h-1.04l.34-4.49h1.34l.67,3.05.63-3.05h1.35l.34,4.49Z"/>
    <path d="M60.74,23.58h-1.04v-1.68c0-.62.05-1.21.15-1.77l-1.29,3.45h-1.28v-4.49h1.04v1.71c0,.36-.01.66-.04.89s-.06.51-.12.83l1.32-3.44h1.26v4.49Z"/>
    <path d="M70,19.08v4.49h-1.06v-1.62h-.52l-.75,1.62h-1.17l.97-1.81c-.26-.11-.46-.27-.59-.47s-.2-.46-.2-.77c0-.96.61-1.44,1.84-1.44h1.49ZM68.94,21.22v-1.39h-.38c-.52,0-.78.24-.78.72,0,.22.06.38.18.5s.29.17.5.17h.48Z"/>
  </g>
</svg>
